# xmcd
#
# Track frame offsets: 
#        150
#        25802
#        51987
#        71497
#        100007
#        125390
#        149980
#        177680
#        205947
#        227462
#        251442
#        271502
#
# Disc length: 3892 seconds
#
# Revision: 0
# Processed by: cddbd v1.5PL3 Copyright (c) Steve Scherf et al.
# Submitted via: ExactAudioCopy v0.95a4
#
DISCID=ab0f320c
DTITLE=Glenn Hughes - L.A. Blues Authority Vol. 2
DYEAR=1993
DGENRE=Blues
TTITLE0=The boy can sing the blues
TTITLE1=I'm the man
TTITLE2=Here come the rebel
TTITLE3=What can I do for ya?
TTITLE4=You don't have to save me any more
TTITLE5=So much love to give
TTITLE6=Shake the ground
TTITLE7=Hey buddy (you got me wrong)
TTITLE8=Have you rad the book?
TTITLE9=Life of misery
TTITLE10=Can't take away me pride
TTITLE11=A right to live
EXTD=
EXTT0=
EXTT1=
EXTT2=
EXTT3=
EXTT4=
EXTT5=
EXTT6=
EXTT7=
EXTT8=
EXTT9=
EXTT10=
EXTT11=
PLAYORDER=
